<svg width="24" height="25" viewBox="0 0 24 25" fill="none" xmlns="http://www.w3.org/2000/svg">
<path d="M17 2.3999H7C4.23858 2.3999 2 4.63848 2 7.3999V17.3999C2 20.1613 4.23858 22.3999 7 22.3999H17C19.7614 22.3999 22 20.1613 22 17.3999V7.3999C22 4.63848 19.7614 2.3999 17 2.3999Z" stroke="#123250" stroke-width="1.5" stroke-linecap="round" stroke-linejoin="round"/>
<path d="M16.0002 11.7697C16.1236 12.602 15.9815 13.4519 15.594 14.1987C15.2065 14.9455 14.5933 15.5511 13.8418 15.9294C13.0903 16.3077 12.2386 16.4393 11.408 16.3056C10.5773 16.172 9.80996 15.7798 9.21503 15.1849C8.62011 14.59 8.22793 13.8226 8.09426 12.9919C7.9606 12.1613 8.09226 11.3096 8.47052 10.5581C8.84878 9.80657 9.45438 9.19346 10.2012 8.80596C10.948 8.41846 11.7979 8.2763 12.6302 8.39972C13.4791 8.5256 14.265 8.92118 14.8719 9.52802C15.4787 10.1349 15.8743 10.9208 16.0002 11.7697Z" stroke="#123250" stroke-width="1.5" stroke-linecap="round" stroke-linejoin="round"/>
<path d="M17.5 6.8999H17.51" stroke="#123250" stroke-linecap="round" stroke-linejoin="round"/>
</svg>
