<svg width="22" height="22" viewBox="0 0 22 22" fill="none" xmlns="http://www.w3.org/2000/svg">
<path fill-rule="evenodd" clip-rule="evenodd" d="M5.16638 2.66977C6.31253 1.89026 7.60168 1.3454 8.95946 1.06662C10.3172 0.787833 11.7168 0.780644 13.0774 1.04547C14.4379 1.31029 15.7326 1.84188 16.8867 2.60957C18.0408 3.37726 19.0315 4.36587 19.8016 5.51836C20.5717 6.67084 21.106 7.96441 21.3737 9.32442C21.6413 10.6844 21.6371 12.084 21.3611 13.4424C21.0852 14.8007 20.543 16.091 19.7659 17.2388C18.9888 18.3866 17.9921 19.3691 16.8334 20.1298C14.518 21.6771 11.6829 22.2413 8.95153 21.6983C6.2202 21.1552 3.81647 19.5494 2.26913 17.234C0.721792 14.9187 0.157593 12.0835 0.700651 9.35217C1.24371 6.62084 2.84954 4.21711 5.16488 2.66977H5.16638ZM6.00038 18.8833C6.98298 19.5472 8.08709 20.0104 9.24927 20.2462C10.4115 20.4821 11.6088 20.4859 12.7725 20.2575C13.9361 20.0291 15.0432 19.573 16.03 18.9154C17.0168 18.2578 17.864 17.4116 18.5227 16.4256C19.1815 15.4395 19.6389 14.333 19.8686 13.1696C20.0984 12.0062 20.0959 10.8088 19.8614 9.64637C19.6269 8.48392 19.165 7.37927 18.5023 6.3959C17.8395 5.41254 16.9889 4.56985 15.9994 3.91627C14.0145 2.60524 11.5913 2.13332 9.25951 2.60369C6.9277 3.07406 4.87695 4.44845 3.55552 6.42642C2.2341 8.4044 1.74948 10.8251 2.20762 13.1593C2.66575 15.4936 4.02936 17.5515 6.00038 18.8833ZM8.74988 9.89977C8.74988 10.2976 8.59185 10.6791 8.31054 10.9604C8.02924 11.2417 7.64771 11.3998 7.24988 11.3998C6.85206 11.3998 6.47053 11.2417 6.18922 10.9604C5.90792 10.6791 5.74988 10.2976 5.74988 9.89977C5.74988 9.50195 5.90792 9.12042 6.18922 8.83911C6.47053 8.55781 6.85206 8.39977 7.24988 8.39977C7.64771 8.39977 8.02924 8.55781 8.31054 8.83911C8.59185 9.12042 8.74988 9.50195 8.74988 9.89977ZM16.2499 9.89977C16.2499 10.2976 16.0918 10.6791 15.8105 10.9604C15.5292 11.2417 15.1477 11.3998 14.7499 11.3998C14.3521 11.3998 13.9705 11.2417 13.6892 10.9604C13.4079 10.6791 13.2499 10.2976 13.2499 9.89977C13.2499 9.50195 13.4079 9.12042 13.6892 8.83911C13.9705 8.55781 14.3521 8.39977 14.7499 8.39977C15.1477 8.39977 15.5292 8.55781 15.8105 8.83911C16.0918 9.12042 16.2499 9.50195 16.2499 9.89977ZM10.9999 15.8998C10.1848 15.9018 9.38447 15.6823 8.68437 15.2649C7.98427 14.8475 7.41069 14.2478 7.02488 13.5298L5.71988 14.2498C6.2451 15.2217 7.02848 16.0298 7.98367 16.5849C8.93886 17.14 10.0288 17.4206 11.1333 17.3958C12.2378 17.371 13.314 17.0417 14.2433 16.4442C15.1726 15.8468 15.9189 15.0043 16.3999 14.0098L15.0499 13.3648C14.6809 14.1249 14.1054 14.7659 13.3891 15.2142C12.6729 15.6625 11.8449 15.9001 10.9999 15.8998Z" fill="#123250"/>
</svg>
