<svg width="14" height="13" viewBox="0 0 14 13" fill="none" xmlns="http://www.w3.org/2000/svg">
<path d="M12.8936 1.07357C12.5531 0.73291 12.1488 0.462671 11.7038 0.278296C11.2588 0.0939216 10.7819 -0.000976563 10.3002 -0.000976562C9.81858 -0.000976563 9.34164 0.0939216 8.89667 0.278296C8.4517 0.462671 8.04741 0.73291 7.70691 1.07357L7.00024 1.78024L6.29357 1.07357C5.60578 0.385779 4.67293 -0.000620055 3.70024 -0.000620047C2.72755 -0.00062004 1.7947 0.385779 1.10691 1.07357C0.419114 1.76137 0.0327149 2.69422 0.0327148 3.66691C0.0327148 4.6396 0.419114 5.57245 1.10691 6.26024L1.81358 6.96691L7.00024 12.1536L12.1869 6.96691L12.8936 6.26024C13.2342 5.91974 13.5045 5.51545 13.6889 5.07048C13.8732 4.6255 13.9681 4.14857 13.9681 3.66691C13.9681 3.18525 13.8732 2.70831 13.6889 2.26334C13.5045 1.81836 13.2342 1.41408 12.8936 1.07357Z" fill="#CE2121"/>
</svg>
