<svg width="24" height="25" viewBox="0 0 24 25" fill="none" xmlns="http://www.w3.org/2000/svg">
<path d="M14.25 10.8999C14.695 10.8999 15.13 10.7679 15.5 10.5207C15.87 10.2735 16.1584 9.92208 16.3287 9.51094C16.499 9.09981 16.5436 8.64741 16.4568 8.21095C16.37 7.77449 16.1557 7.37358 15.841 7.05891C15.5263 6.74424 15.1254 6.52995 14.689 6.44314C14.2525 6.35632 13.8001 6.40088 13.389 6.57117C12.9778 6.74147 12.6264 7.02986 12.3792 7.39987C12.132 7.76988 12 8.2049 12 8.6499C12 9.24664 12.2371 9.81894 12.659 10.2409C13.081 10.6629 13.6533 10.8999 14.25 10.8999ZM14.25 7.8999C14.3983 7.8999 14.5433 7.94389 14.6667 8.0263C14.79 8.10871 14.8861 8.22585 14.9429 8.36289C14.9997 8.49994 15.0145 8.65074 14.9856 8.79622C14.9567 8.94171 14.8852 9.07534 14.7803 9.18023C14.6754 9.28512 14.5418 9.35655 14.3963 9.38549C14.2508 9.41443 14.1 9.39958 13.963 9.34281C13.8259 9.28605 13.7088 9.18992 13.6264 9.06658C13.544 8.94324 13.5 8.79824 13.5 8.6499C13.5 8.45099 13.579 8.26023 13.7197 8.11957C13.8603 7.97892 14.0511 7.8999 14.25 7.8999Z" fill="#123250"/>
<path d="M19.5 3.3999H4.5C4.10218 3.3999 3.72064 3.55794 3.43934 3.83924C3.15804 4.12055 3 4.50208 3 4.8999V19.8999C3 20.2977 3.15804 20.6793 3.43934 20.9606C3.72064 21.2419 4.10218 21.3999 4.5 21.3999H19.5C19.8978 21.3999 20.2794 21.2419 20.5607 20.9606C20.842 20.6793 21 20.2977 21 19.8999V4.8999C21 4.50208 20.842 4.12055 20.5607 3.83924C20.2794 3.55794 19.8978 3.3999 19.5 3.3999ZM19.5 19.8999H4.5V15.3999L8.25 11.6499L12.4425 15.8424C12.7235 16.1218 13.1037 16.2786 13.5 16.2786C13.8963 16.2786 14.2765 16.1218 14.5575 15.8424L15.75 14.6499L19.5 18.3999V19.8999ZM19.5 16.2774L16.8075 13.5849C16.5265 13.3055 16.1463 13.1487 15.75 13.1487C15.3537 13.1487 14.9735 13.3055 14.6925 13.5849L13.5 14.7774L9.3075 10.5849C9.02646 10.3055 8.64628 10.1487 8.25 10.1487C7.85372 10.1487 7.47354 10.3055 7.1925 10.5849L4.5 13.2774V4.8999H19.5V16.2774Z" fill="#123250"/>
</svg>
