<svg width="20" height="21" viewBox="0 0 20 21" fill="none" xmlns="http://www.w3.org/2000/svg">
<path d="M16.75 0.399902C18.4825 0.399902 19.9 2.09562 19.995 4.23133L20 4.46276V16.337C20 18.5042 18.6437 20.2742 16.9338 20.3942L16.75 20.3999H3.25C1.5175 20.3999 0.0999999 18.7042 0.00499994 16.5685L0 16.337V4.46276C0 2.29562 1.35625 0.525617 3.065 0.405617L3.25 0.399902H16.75ZM16.5625 1.82847H3.4375C2.28 1.82847 1.3325 2.96133 1.255 4.39562L1.25 4.58419V16.2156C1.25 17.6742 2.15 18.8685 3.2875 18.9656L3.4375 18.9713H16.5625C17.72 18.9713 18.6675 17.8385 18.745 16.4056L18.75 16.2142V4.58562C18.75 3.12705 17.85 1.93276 16.7125 1.83562L16.5625 1.82847ZM6.06375 6.11704C6.83875 6.11704 7.49875 6.25562 8.04 6.54419C8.37375 6.72133 8.5075 7.1499 8.34 7.50276C8.25082 7.67572 8.10817 7.80422 7.94019 7.86293C7.77221 7.92163 7.59107 7.90628 7.4325 7.8199C7.0975 7.64133 6.6425 7.54562 6.06375 7.54562C4.78125 7.54562 3.85125 8.73419 3.85125 10.4028C3.85125 12.0013 4.8675 13.257 6.06375 13.257C6.81 13.257 7.31625 12.7556 7.38875 12.2956L7.39875 12.1813V11.1156L6.925 11.1142C6.5525 11.1142 6.25 10.7942 6.25 10.3999C6.25 10.0499 6.48875 9.75705 6.80375 9.69705L6.92625 9.68562L8.07375 9.68705C8.22673 9.68186 8.37657 9.73737 8.4978 9.84414C8.61902 9.95092 8.70416 10.1024 8.73875 10.2728L8.75 10.4013V12.1813C8.75 13.4342 7.6425 14.6856 6.06375 14.6856C4.07 14.6856 2.5 12.7456 2.5 10.4013C2.5 7.9999 3.97125 6.11704 6.06375 6.11704ZM11.25 6.11419C11.3963 6.11413 11.5379 6.17272 11.6503 6.27974C11.7627 6.38677 11.8387 6.53545 11.865 6.6999L11.875 6.82847V13.9713C11.8753 14.1498 11.8171 14.322 11.7119 14.4539C11.6066 14.5858 11.462 14.6679 11.3065 14.684C11.1509 14.7001 10.9957 14.6491 10.8715 14.541C10.7472 14.4329 10.6628 14.2755 10.635 14.0999L10.625 13.9713V6.82847C10.625 6.63903 10.6908 6.45735 10.8081 6.3234C10.9253 6.18944 11.0842 6.11419 11.25 6.11419ZM16.875 6.11419C17.0312 6.11386 17.1818 6.18037 17.2972 6.30063C17.4126 6.42089 17.4845 6.58617 17.4986 6.76393C17.5127 6.9417 17.4681 7.11906 17.3735 7.26109C17.2789 7.40312 17.1412 7.49953 16.9875 7.53133L16.875 7.54276H15V10.3999H16.875C17.0312 10.3996 17.1818 10.4661 17.2972 10.5863C17.4126 10.7066 17.4845 10.8719 17.4986 11.0496C17.5127 11.2274 17.4681 11.4048 17.3735 11.5468C17.2789 11.6888 17.1412 11.7852 16.9875 11.817L16.875 11.8285H15V13.9713C15.0003 14.1498 14.9421 14.322 14.8369 14.4539C14.7316 14.5858 14.587 14.6679 14.4315 14.684C14.2759 14.7001 14.1207 14.6491 13.9965 14.541C13.8722 14.4329 13.7878 14.2755 13.76 14.0999L13.75 13.9713V6.82847C13.75 6.63903 13.8158 6.45735 13.9331 6.3234C14.0503 6.18944 14.2092 6.11419 14.375 6.11419H16.875Z" fill="#123250"/>
</svg>
